# xmcd
#
# Track frame offsets:
#	150
#	19689
#	38800
#	67532
#	87594
#	110337
#	126191
#	143671
#	173931
#	201140
#	226461
#
# Disc length: 3363 seconds
# Revision: 0
# Processed by: cddbd v1.5.2PL0 Copyright (c) Steve Scherf et al.
# Submitted via: dBpowerAMP V12.0
#
DISCID=8c0d210b
DTITLE=Synthetic Breed - Perpetual Motion Machine
DYEAR=2010
DGENRE=Metal
TTITLE0=Resilience
TTITLE1=Beyond the Sphere of Reason
TTITLE2=Oblivion
TTITLE3=Convergence
TTITLE4=Molecular Self Assembly
TTITLE5=Narcissistic Indulgence
TTITLE6=Scourge
TTITLE7=Mirrored Reflections
TTITLE8=Afflictions of Advancement
TTITLE9=The Quiescent Subject
TTITLE10=Reciprocated Damnation
EXTD=
EXTT0=
EXTT1=
EXTT2=
EXTT3=
EXTT4=
EXTT5=
EXTT6=
EXTT7=
EXTT8=
EXTT9=
EXTT10=
PLAYORDER=
